<mxfile host="app.diagrams.net" modified="2024-05-30T04:31:32.448Z" agent="Mozilla/5.0 (Macintosh; Intel Mac OS X 10_15_7) AppleWebKit/537.36 (KHTML, like Gecko) Chrome/125.0.0.0 Safari/537.36" etag="vp2WaCvISTi1iFFqhMly" version="24.4.10" type="github">
  <diagram name="Page-1" id="aU86ne-bURRB--sDTwAp">
    <mxGraphModel dx="1036" dy="657" grid="1" gridSize="10" guides="1" tooltips="1" connect="1" arrows="1" fold="1" page="1" pageScale="1" pageWidth="827" pageHeight="1169" math="0" shadow="0">
      <root>
        <mxCell id="0" />
        <mxCell id="1" parent="0" />
        <mxCell id="jTAqHSk-lPc59UA40xNv-12" value="Members" style="swimlane;childLayout=stackLayout;horizontal=1;startSize=50;horizontalStack=0;rounded=1;fontSize=14;fontStyle=0;strokeWidth=2;resizeParent=0;resizeLast=1;shadow=0;dashed=0;align=center;arcSize=4;whiteSpace=wrap;html=1;fillColor=#f8cecc;strokeColor=#b85450;" parent="1" vertex="1">
          <mxGeometry x="130" y="525" width="160" height="120" as="geometry" />
        </mxCell>
        <mxCell id="jTAqHSk-lPc59UA40xNv-13" value="+Member ID (PK)&lt;div&gt;+Name&lt;/div&gt;&lt;div&gt;+Address&lt;/div&gt;&lt;div&gt;+Phone Number&lt;/div&gt;" style="align=left;strokeColor=none;fillColor=none;spacingLeft=4;fontSize=12;verticalAlign=top;resizable=0;rotatable=0;part=1;html=1;" parent="jTAqHSk-lPc59UA40xNv-12" vertex="1">
          <mxGeometry y="50" width="160" height="70" as="geometry" />
        </mxCell>
        <mxCell id="jTAqHSk-lPc59UA40xNv-14" value="Loans" style="swimlane;childLayout=stackLayout;horizontal=1;startSize=50;horizontalStack=0;rounded=1;fontSize=14;fontStyle=0;strokeWidth=2;resizeParent=0;resizeLast=1;shadow=0;dashed=0;align=center;arcSize=4;whiteSpace=wrap;html=1;fillColor=#e1d5e7;strokeColor=#9673a6;" parent="1" vertex="1">
          <mxGeometry x="320" y="310" width="160" height="150" as="geometry" />
        </mxCell>
        <mxCell id="jTAqHSk-lPc59UA40xNv-15" value="&lt;div&gt;+Loan date&lt;/div&gt;&lt;div&gt;+Return date&lt;/div&gt;&lt;div&gt;+Member ID (PK)(FK)&lt;br&gt;+Barcode (PK)(FK)&lt;/div&gt;&lt;div&gt;+Staff ID (FK)&lt;/div&gt;" style="align=left;strokeColor=none;fillColor=none;spacingLeft=4;fontSize=12;verticalAlign=top;resizable=0;rotatable=0;part=1;html=1;" parent="jTAqHSk-lPc59UA40xNv-14" vertex="1">
          <mxGeometry y="50" width="160" height="100" as="geometry" />
        </mxCell>
        <mxCell id="jTAqHSk-lPc59UA40xNv-18" value="Books" style="swimlane;childLayout=stackLayout;horizontal=1;startSize=50;horizontalStack=0;rounded=1;fontSize=14;fontStyle=0;strokeWidth=2;resizeParent=0;resizeLast=1;shadow=0;dashed=0;align=center;arcSize=4;whiteSpace=wrap;html=1;fillColor=#f8cecc;strokeColor=#b85450;" parent="1" vertex="1">
          <mxGeometry x="190" y="140" width="160" height="140" as="geometry" />
        </mxCell>
        <mxCell id="jTAqHSk-lPc59UA40xNv-19" value="+Barcode (PK)&lt;br&gt;+ISBN&lt;br&gt;&lt;div&gt;+Title&lt;/div&gt;&lt;div&gt;+Author&lt;/div&gt;&lt;div&gt;+Publication Year&lt;/div&gt;" style="align=left;strokeColor=none;fillColor=none;spacingLeft=4;fontSize=12;verticalAlign=top;resizable=0;rotatable=0;part=1;html=1;" parent="jTAqHSk-lPc59UA40xNv-18" vertex="1">
          <mxGeometry y="50" width="160" height="90" as="geometry" />
        </mxCell>
        <mxCell id="bTT_k1-Le5d4IXvoYcfQ-10" style="edgeStyle=orthogonalEdgeStyle;rounded=0;orthogonalLoop=1;jettySize=auto;html=1;entryX=1;entryY=0.5;entryDx=0;entryDy=0;endArrow=ERoneToMany;endFill=0;" edge="1" parent="1" source="jTAqHSk-lPc59UA40xNv-20" target="jTAqHSk-lPc59UA40xNv-15">
          <mxGeometry relative="1" as="geometry" />
        </mxCell>
        <mxCell id="jTAqHSk-lPc59UA40xNv-20" value="Librarians" style="swimlane;childLayout=stackLayout;horizontal=1;startSize=50;horizontalStack=0;rounded=1;fontSize=14;fontStyle=0;strokeWidth=2;resizeParent=0;resizeLast=1;shadow=0;dashed=0;align=center;arcSize=4;whiteSpace=wrap;html=1;fillColor=#f8cecc;strokeColor=#b85450;" parent="1" vertex="1">
          <mxGeometry x="550" y="150" width="160" height="120" as="geometry" />
        </mxCell>
        <mxCell id="jTAqHSk-lPc59UA40xNv-21" value="+Staff ID (PK)&lt;div&gt;+Employee Name&lt;/div&gt;&lt;div&gt;+Name&lt;br&gt;+Contact Details&lt;br&gt;&lt;div&gt;&lt;br&gt;&lt;/div&gt;&lt;/div&gt;" style="align=left;strokeColor=none;fillColor=none;spacingLeft=4;fontSize=12;verticalAlign=top;resizable=0;rotatable=0;part=1;html=1;" parent="jTAqHSk-lPc59UA40xNv-20" vertex="1">
          <mxGeometry y="50" width="160" height="70" as="geometry" />
        </mxCell>
        <mxCell id="bTT_k1-Le5d4IXvoYcfQ-5" style="edgeStyle=orthogonalEdgeStyle;rounded=0;orthogonalLoop=1;jettySize=auto;html=1;exitX=0;exitY=0.25;exitDx=0;exitDy=0;entryX=0.5;entryY=1;entryDx=0;entryDy=0;startArrow=ERoneToMany;startFill=0;endArrow=none;endFill=0;" edge="1" parent="1" source="jTAqHSk-lPc59UA40xNv-15" target="jTAqHSk-lPc59UA40xNv-19">
          <mxGeometry relative="1" as="geometry" />
        </mxCell>
        <mxCell id="bTT_k1-Le5d4IXvoYcfQ-9" style="edgeStyle=orthogonalEdgeStyle;rounded=0;orthogonalLoop=1;jettySize=auto;html=1;exitX=0.5;exitY=0;exitDx=0;exitDy=0;entryX=0;entryY=0.5;entryDx=0;entryDy=0;endArrow=ERoneToMany;endFill=0;" edge="1" parent="1" source="jTAqHSk-lPc59UA40xNv-12" target="jTAqHSk-lPc59UA40xNv-15">
          <mxGeometry relative="1" as="geometry" />
        </mxCell>
      </root>
    </mxGraphModel>
  </diagram>
</mxfile>
